<svg width="83" height="14" viewBox="0 0 83 14" fill="none" xmlns="http://www.w3.org/2000/svg">
<path d="M7.64054 0.675492C-3.45241 1.16054 0.801424 13.3295 0.801424 13.3295C3.04698 11.0869 6.07763 9.80703 9.25089 9.76118H9.26544C9.71186 9.73692 10.1576 9.81929 10.5659 10.0015C10.9742 10.1837 11.3332 10.4604 11.6134 10.8089C11.8935 11.1573 12.0866 11.5674 12.1768 12.0053C12.267 12.4432 12.2517 12.8963 12.132 13.3271C12.132 13.3271 15.4118 9.49036 13.5872 5.11769C13.2159 4.33714 12.6256 3.68139 11.8883 3.23027C11.151 2.77916 10.2984 2.55214 9.4344 2.57687C8.74416 2.58057 8.06116 2.71783 7.42308 2.98107C7.14232 3.06085 6.88042 3.19614 6.65286 3.37892C6.4253 3.5617 6.23672 3.78827 6.09826 4.04521C5.9598 4.30216 5.87428 4.58426 5.84676 4.87484C5.81924 5.16541 5.85028 5.45856 5.93804 5.73693C6.05071 5.96392 6.22634 6.15368 6.44394 6.28355C6.66154 6.41342 6.91193 6.47792 7.1652 6.46934C7.25209 6.46935 7.33885 6.46259 7.4247 6.44913C9.03262 6.19691 9.68824 5.45398 10.0593 5.45398C10.1111 5.45329 10.1616 5.47041 10.2024 5.50249C10.4392 5.686 10.2121 6.43943 8.15388 7.26724C7.41502 7.54583 6.63305 7.69275 5.84346 7.70136C4.79253 7.70136 3.76019 7.38365 3.41339 6.32706C2.76828 4.36264 5.08274 2.01017 8.56051 1.73774C8.73674 1.72238 8.97603 1.7151 9.14256 1.7151C10.4804 1.71471 11.7762 2.18229 12.8055 3.03685C12.2971 2.27086 11.598 1.65049 10.7769 1.23686C9.95589 0.823228 9.04128 0.630589 8.12316 0.677918C8.12316 0.677918 7.92187 0.669834 7.63812 0.677918" fill="#E4610E"/>
<path d="M38.2311 12.26H36.1163L32.6871 8.36429H30.3047V12.26H28.502V0.990007H33.7501C34.2585 0.948017 34.7701 1.01236 35.2523 1.17893C35.7344 1.3455 36.1767 1.61065 36.5507 1.9575C36.9248 2.30435 37.2226 2.72529 37.425 3.19353C37.6275 3.66176 37.7302 4.16703 37.7267 4.67715C37.7774 5.54603 37.4855 6.40017 36.9136 7.05626C36.3417 7.71235 35.5354 8.11811 34.6677 8.18644L38.2311 12.26ZM30.3088 2.63269V6.72161H33.7372C34.0158 6.75318 34.2978 6.72401 34.564 6.63611C34.8302 6.54822 35.0742 6.40368 35.2792 6.21245C35.4842 6.02122 35.6453 5.78785 35.7514 5.52839C35.8576 5.26893 35.9062 4.98955 35.894 4.70949C35.9045 4.42838 35.8558 4.14821 35.751 3.88715C35.6463 3.62609 35.4878 3.38998 35.2858 3.19414C35.0839 2.99831 34.843 2.84712 34.5789 2.75039C34.3147 2.65367 34.0332 2.61357 33.7526 2.63269H30.3088Z" fill="black"/>
<path d="M63.3664 0.989746C67.2136 0.989746 68.9686 3.74237 69.0171 6.52733C69.074 7.28764 68.9675 8.05131 68.7048 8.76704C68.442 9.48277 68.0292 10.134 67.4939 10.6769C66.9586 11.2199 66.3133 11.6419 65.6014 11.9148C64.8895 12.1877 64.1274 12.305 63.3664 12.2589H59.0996V0.989746H63.3664ZM60.887 10.5201H63.3664C63.8941 10.5497 64.422 10.4651 64.914 10.272C65.406 10.079 65.8505 9.78203 66.2173 9.40146C66.584 9.02089 66.8643 8.56566 67.0391 8.06685C67.2138 7.56805 67.2789 7.03741 67.2298 6.51116C67.2499 6.00133 67.1633 5.49291 66.9755 5.01853C66.7876 4.54414 66.5026 4.11428 66.1388 3.75651C65.775 3.39874 65.3405 3.12098 64.8631 2.94104C64.3856 2.7611 63.8758 2.68297 63.3664 2.71165H60.887V10.5201Z" fill="black"/>
<path d="M72.184 0.989746H70.3975V12.2589H72.184V0.989746Z" fill="black"/>
<path d="M81.1298 3.48577C80.7944 3.07523 80.3683 2.74814 79.885 2.53029C79.4018 2.31243 78.8745 2.20974 78.3448 2.23031C76.8315 2.23031 75.7369 2.85845 75.7369 3.93686C75.7369 5.03144 76.9924 5.33702 78.4734 5.54721C80.7919 5.87057 83.0005 6.51325 83.0005 9.04033C82.9851 11.5674 80.6827 12.5165 78.3319 12.5165C76.1751 12.5165 74.517 11.8568 73.4863 9.95707L74.8388 9.05569C75.2047 9.64995 75.7233 10.1352 76.3405 10.461C76.9577 10.7867 77.651 10.941 78.3481 10.9078C79.7005 10.9078 81.1977 10.4567 81.1977 9.04033C81.1977 7.81721 79.8938 7.39846 78.3157 7.18908C76.0781 6.8827 73.9503 6.31924 73.9503 3.90453C73.9342 1.57065 76.2689 0.670898 78.2971 0.670898C79.9229 0.670898 81.5494 1.05732 82.5009 2.57065L81.1298 3.48577Z" fill="black"/>
<path d="M27.8825 12.2589L22.8275 0.989746H20.8639L15.8057 12.2589H17.7224L21.8453 2.88869L24.2018 8.24924H20.4758L19.7523 9.89192H24.9261L25.9665 12.2589H27.8825Z" fill="black"/>
<path d="M53.422 0.989489H51.4584L48.1779 8.2991C47.9465 8.76481 47.6521 9.1965 47.3032 9.58204C46.4996 10.3509 45.4331 10.7846 44.321 10.7947C43.7697 10.8331 43.2167 10.7537 42.6985 10.5617C42.1804 10.3697 41.7092 10.0695 41.3162 9.68107C40.9232 9.29265 40.6174 8.82496 40.4194 8.30913C40.2213 7.7933 40.1354 7.24119 40.1674 6.68956C40.1334 6.13382 40.2173 5.57717 40.4136 5.05614C40.6099 4.53511 40.9141 4.06146 41.3064 3.66627C41.6986 3.27108 42.1699 2.96328 42.6894 2.76305C43.209 2.56282 43.765 2.47469 44.321 2.50444C45.4055 2.49457 46.4505 2.91084 47.2312 3.6637L48.439 2.50444C47.8998 1.96015 47.2574 1.52886 46.5495 1.23584C45.8415 0.942813 45.0823 0.793928 44.3161 0.797897C43.5274 0.754946 42.7386 0.878116 42.0005 1.15943C41.2625 1.44075 40.5918 1.87394 40.0318 2.43094C39.4718 2.98795 39.035 3.65637 38.7498 4.3929C38.4646 5.12943 38.3372 5.91766 38.3759 6.70654C38.3921 9.66854 40.2272 12.4858 44.3161 12.4858C45.0974 12.5007 45.874 12.3604 46.6007 12.073C47.3274 11.7856 47.9899 11.3569 48.5497 10.8116C49.0399 10.2888 49.4391 9.68771 49.7308 9.03313L49.8715 8.70977L50.2013 7.96038L52.4333 2.8852L54.7898 8.24575H51.0639L50.3404 9.88843H55.5142L56.5546 12.2554H58.4721L53.422 0.989489Z" fill="black"/>
</svg>
