<svg xmlns="http://www.w3.org/2000/svg" width="200" height="64" viewBox="0 0 200 64" fill="none">
  <path d="M31.6656 21.5276C30.2701 21.4957 28.8823 21.743 27.5838 22.2549C26.2852 22.7669 25.1021 23.5332 24.1038 24.5088C23.1056 25.4845 22.3124 26.6498 21.7709 27.9363C21.2294 29.2228 20.9504 30.6045 20.9504 32.0004C20.9504 33.3962 21.2294 34.778 21.7709 36.0645C22.3124 37.351 23.1056 38.5163 24.1038 39.4919C25.1021 40.4675 26.2852 41.2339 27.5838 41.7458C28.8823 42.2578 30.2701 42.505 31.6656 42.4731H42.1378V31.9976C42.1372 29.2206 41.0336 26.5575 39.0697 24.5941C37.1059 22.6307 34.4426 21.5276 31.6656 21.5276Z" fill="#FF003B"/>
  <path d="M52.6106 42.4731H42.1351V52.9485H31.6657C27.5229 52.9486 23.4732 51.7203 20.0286 49.4188C16.584 47.1173 13.8992 43.8461 12.3138 40.0187C10.7283 36.1914 10.3134 31.9798 11.1215 27.9167C11.9296 23.8536 13.9244 20.1213 16.8537 17.1919C19.7829 14.2624 23.5151 12.2674 27.5782 11.4591C31.6413 10.6508 35.8529 11.0655 39.6803 12.6507C43.5077 14.236 46.7791 16.9206 49.0808 20.3651C51.3825 23.8096 52.611 27.8593 52.6111 32.002L52.6106 42.4731ZM31.6651 0.581055C27.5391 0.581055 23.4535 1.39374 19.6416 2.97269C15.8297 4.55164 12.3661 6.86595 9.44853 9.78347C6.53101 12.701 4.2167 16.1646 2.63775 19.9765C1.05879 23.7885 0.246094 27.8741 0.246094 32.0001C0.246094 36.1261 1.05879 40.2117 2.63775 44.0236C4.2167 47.8355 6.53101 51.2991 9.44853 54.2167C12.3661 57.1342 15.8297 59.4485 19.6416 61.0274C23.4535 62.6064 27.5391 63.4191 31.6651 63.4191H63.086V32.0003C63.086 27.8742 62.2733 23.7885 60.6943 19.9765C59.1153 16.1644 56.8008 12.7007 53.8832 9.78316C50.9655 6.86559 47.5017 4.55129 43.6896 2.97239C39.8776 1.39349 35.7918 0.580911 31.6657 0.581055H31.6651Z" fill="#FF003B"/>
  <path d="M87.7067 28.5037C88.7863 28.5023 89.8556 28.7148 90.8526 29.129C91.8496 29.5432 92.7546 30.1509 93.5154 30.9169L97.7116 26.7206C95.7328 24.7416 93.2115 23.3938 90.4666 22.8477C87.7217 22.3016 84.8765 22.5817 82.2908 23.6527C79.7051 24.7236 77.4951 26.5373 75.9402 28.8643C74.3854 31.1913 73.5554 33.9271 73.5554 36.7258C73.5554 39.5245 74.3854 42.2603 75.9402 44.5873C77.4951 46.9143 79.7051 48.728 82.2908 49.7989C84.8765 50.8699 87.7217 51.15 90.4666 50.6039C93.2115 50.0578 95.7328 48.71 97.7116 46.731L93.5154 42.5353C92.5594 43.4892 91.3831 44.1927 90.0904 44.5836C88.7977 44.9745 87.4286 45.0408 86.1042 44.7764C84.7798 44.5121 83.5411 43.9254 82.4975 43.0682C81.4539 42.211 80.6377 41.1098 80.1212 39.862C79.6046 38.6142 79.4036 37.2583 79.536 35.9143C79.6683 34.5703 80.13 33.2797 80.88 32.1566C81.63 31.0335 82.6453 30.1127 83.8361 29.4755C85.0268 28.8384 86.3562 28.5046 87.7067 28.5037Z" fill="#2A2D40"/>
  <path d="M112.806 41.0649C112.806 43.8796 111.359 45.3253 109.093 45.3253C106.826 45.3253 105.496 43.8796 105.496 41.0649V29.3779H99.5549V42.9434C99.5549 47.7506 102.174 50.721 106.669 50.721C109.678 50.721 111.44 49.119 112.805 47.3601V50.3294H118.746V29.3785H112.805L112.806 41.0649Z" fill="#2A2D40"/>
  <path d="M128.604 33.5986V29.3755H122.663V50.3264H128.604V42.5872C128.604 37.5836 131.027 35.199 134.975 35.199H135.287V28.9855C131.769 28.8303 129.816 30.706 128.604 33.5986Z" fill="#2A2D40"/>
  <path d="M153.656 39.8906C153.656 43.4095 151.311 45.6768 148.536 45.6768C145.76 45.6768 143.455 43.3733 143.455 39.8906V39.8133C143.455 36.3344 145.758 34.0282 148.536 34.0282C151.313 34.0282 153.656 36.3317 153.656 39.8133V39.8906ZM150.06 28.9851C148.775 28.9617 147.504 29.2606 146.364 29.8546C145.224 30.4486 144.251 31.3187 143.534 32.3856V21.4077H137.592V50.3271H143.534V47.5915C144.302 48.586 145.292 49.3867 146.426 49.9296C147.559 50.4725 148.804 50.7424 150.06 50.7176C155.024 50.7176 159.597 46.8878 159.597 39.8901V39.8127C159.597 32.8172 154.946 28.9857 150.06 28.9857V28.9851Z" fill="#2A2D40"/>
  <path d="M168.381 22.9668H162.362V50.3275H168.381V22.9668Z" fill="#2A2D40"/>
  <path d="M185.295 44.8722C183.667 44.876 182.075 44.3968 180.72 43.4951C179.364 42.5934 178.307 41.3099 177.681 39.807C177.055 38.3041 176.89 36.6494 177.205 35.0522C177.52 33.4551 178.302 31.9875 179.452 30.835C180.602 29.6826 182.068 28.8971 183.664 28.5781C185.26 28.2591 186.916 28.4209 188.42 29.043C189.924 29.6651 191.21 30.7196 192.115 32.0729C193.02 33.4262 193.503 35.0175 193.503 36.6454C193.504 37.7246 193.293 38.7934 192.881 39.7909C192.47 40.7884 191.865 41.695 191.103 42.4589C190.341 43.2229 189.436 43.8292 188.439 44.2433C187.443 44.6574 186.374 44.8711 185.295 44.8722ZM197.172 44.3238C199.072 41.3856 199.818 37.848 199.266 34.3925C198.714 30.937 196.903 27.808 194.182 25.6083C191.46 23.4085 188.021 22.2936 184.527 22.4783C181.032 22.663 177.73 24.1342 175.255 26.6086C172.781 29.083 171.31 32.3855 171.125 35.8799C170.94 39.3744 172.055 42.8136 174.255 45.535C176.455 48.2565 179.584 50.0677 183.039 50.6197C186.495 51.1717 190.032 50.4256 192.97 48.5249L195.553 51.1065L197.654 49.0059L199.754 46.9053L197.172 44.3238Z" fill="#2A2D40"/>
</svg>